# xmcd CD database file
#
# Track frame offsets:
#	150
#	37347
#	64920
#	81830
#	96587
#	126182
#	149672
#	174145
#	209202
#	229040
#
# Disc length: 3442 seconds
#
# Revision: 0
# Processed by: cddbd v1.5PL3 Copyright (c) Steve Scherf et al.
# Submitted via: CDex 1.60beta1
#
DISCID=9c0d700a
DTITLE=Kenny Davern  - East Side, West Side
DYEAR=1994
DGENRE=Jazz
TTITLE0=There'll be Some Changes Made 
TTITLE1=Wrap Your Troubles In Dreams 
TTITLE2=Delta Bound 
TTITLE3=Sidewalks Of New York 
TTITLE4=Am I Blue? 
TTITLE5=There's Yes! Yes! In Your Eyes 
TTITLE6=Always 
TTITLE7=I'm Sorry I Made You Cry 
TTITLE8=Please Be Kind 
TTITLE9=Sugar 
EXTD=YEAR: 1994
EXTT0=
EXTT1=
EXTT2=
EXTT3=
EXTT4=
EXTT5=
EXTT6=
EXTT7=
EXTT8=
EXTT9=
PLAYORDER=
